<svg xmlns="http://www.w3.org/2000/svg" viewBox="0 0 32 32">
  <g transform="translate(16 16)">
    <g fill="#ef4d5a">
      <path d="M0,-2.5C-2.8,-6.2 -4.8,-11.2 -4.2,-15.8C-2,-18.8 2,-18.8 4.2,-15.8C4.8,-11.2 2.8,-6.2 0,-2.5z" transform="rotate(0)"/>
      <path d="M0,-2.5C-2.8,-6.2 -4.8,-11.2 -4.2,-15.8C-2,-18.8 2,-18.8 4.2,-15.8C4.8,-11.2 2.8,-6.2 0,-2.5z" transform="rotate(72)"/>
      <path d="M0,-2.5C-2.8,-6.2 -4.8,-11.2 -4.2,-15.8C-2,-18.8 2,-18.8 4.2,-15.8C4.8,-11.2 2.8,-6.2 0,-2.5z" transform="rotate(144)"/>
      <path d="M0,-2.5C-2.8,-6.2 -4.8,-11.2 -4.2,-15.8C-2,-18.8 2,-18.8 4.2,-15.8C4.8,-11.2 2.8,-6.2 0,-2.5z" transform="rotate(216)"/>
      <path d="M0,-2.5C-2.8,-6.2 -4.8,-11.2 -4.2,-15.8C-2,-18.8 2,-18.8 4.2,-15.8C4.8,-11.2 2.8,-6.2 0,-2.5z" transform="rotate(288)"/>
    </g>
    <g stroke="#ffe566" stroke-width="0.55" fill="none" stroke-linecap="round" opacity="0.9">
      <path d="M0,-5.5 L0,-12" transform="rotate(0)"/>
      <path d="M0,-5.5 L0,-12" transform="rotate(72)"/>
      <path d="M0,-5.5 L0,-12" transform="rotate(144)"/>
      <path d="M0,-5.5 L0,-12" transform="rotate(216)"/>
      <path d="M0,-5.5 L0,-12" transform="rotate(288)"/>
    </g>
  </g>
  <circle cx="16" cy="16" r="5.5" fill="#ffe566"/>
  <circle cx="16" cy="16" r="4" fill="#ffd84d"/>
</svg>
